<svg width="20" height="20" viewBox="0 0 20 20" fill="none" xmlns="http://www.w3.org/2000/svg">
<path d="M0 4.70571C0 5.25799 0.447715 5.70571 1 5.70571H4.70571C5.25799 5.70571 5.70571 5.25799 5.70571 4.70571V1C5.70571 0.447716 5.25799 0 4.70571 0H1C0.447716 0 0 0.447715 0 1V4.70571ZM7.14715 4.70571C7.14715 5.25799 7.59486 5.70571 8.14715 5.70571H11.8529C12.4051 5.70571 12.8529 5.25799 12.8529 4.70571V1C12.8529 0.447716 12.4051 0 11.8529 0H8.14715C7.59486 0 7.14715 0.447715 7.14715 1V4.70571ZM14.2643 4.70571C14.2643 5.25799 14.712 5.70571 15.2643 5.70571H19C19.5523 5.70571 20 5.25799 20 4.70571V1C20 0.447716 19.5523 0 19 0H15.2643C14.712 0 14.2643 0.447715 14.2643 1V4.70571ZM0 11.8529C0 12.4051 0.447715 12.8529 1 12.8529H4.70571C5.25799 12.8529 5.70571 12.4051 5.70571 11.8529V8.14715C5.70571 7.59486 5.25799 7.14715 4.70571 7.14715H1C0.447716 7.14715 0 7.59486 0 8.14715V11.8529ZM7.14715 11.8529C7.14715 12.4051 7.59486 12.8529 8.14715 12.8529H11.8529C12.4051 12.8529 12.8529 12.4051 12.8529 11.8529V8.14715C12.8529 7.59486 12.4051 7.14715 11.8529 7.14715H8.14715C7.59486 7.14715 7.14715 7.59486 7.14715 8.14715V11.8529ZM14.2643 11.8529C14.2643 12.4051 14.712 12.8529 15.2643 12.8529H19C19.5523 12.8529 20 12.4051 20 11.8529V8.14715C20 7.59486 19.5523 7.14715 19 7.14715H15.2643C14.712 7.14715 14.2643 7.59486 14.2643 8.14715V11.8529ZM0 19C0 19.5523 0.447715 20 1 20H4.70571C5.25799 20 5.70571 19.5523 5.70571 19V15.2643C5.70571 14.712 5.25799 14.2643 4.70571 14.2643H1C0.447716 14.2643 0 14.712 0 15.2643V19ZM7.14715 19C7.14715 19.5523 7.59486 20 8.14715 20H11.8529C12.4051 20 12.8529 19.5523 12.8529 19V15.2643C12.8529 14.712 12.4051 14.2643 11.8529 14.2643H8.14715C7.59486 14.2643 7.14715 14.712 7.14715 15.2643V19ZM14.2643 19C14.2643 19.5523 14.712 20 15.2643 20H19C19.5523 20 20 19.5523 20 19V15.2643C20 14.712 19.5523 14.2643 19 14.2643H15.2643C14.712 14.2643 14.2643 14.712 14.2643 15.2643V19Z" fill="#F5F5F5"/>
</svg>
