<svg width="10" height="6" viewBox="0 0 10 6" fill="none" xmlns="http://www.w3.org/2000/svg">
<path d="M0.200091 0.261912C0.267059 0.183113 0.347601 0.119477 0.437116 0.0746378C0.526631 0.0297984 0.623366 0.00463391 0.721797 0.00058193C0.820228 -0.00347005 0.918427 0.0136697 1.01079 0.0510221C1.10314 0.0883746 1.18785 0.145208 1.26007 0.218277L5.00001 4.06578L8.73995 0.218277C8.81218 0.145217 8.89689 0.0883911 8.98925 0.051044C9.0816 0.0136969 9.1798 -0.00343977 9.27823 0.000612099C9.37666 0.00466397 9.47339 0.0298252 9.56291 0.0746591C9.65242 0.119493 9.73296 0.183122 9.79994 0.261912C9.86691 0.340702 9.919 0.433112 9.95324 0.533864C9.98747 0.634616 10.0032 0.741737 9.99947 0.849111C9.99575 0.956486 9.97269 1.06201 9.93159 1.15966C9.89049 1.25731 9.83216 1.34518 9.75994 1.41824L5.51001 5.78173C5.37132 5.92204 5.18916 6 5.00001 6C4.81087 6 4.62871 5.92204 4.49002 5.78173L0.24009 1.41824C0.167857 1.34518 0.109522 1.25732 0.0684189 1.15967C0.0273154 1.06202 0.00424782 0.95649 0.000533445 0.849113C-0.00318093 0.741736 0.0125308 0.634611 0.0467711 0.533859C0.0810115 0.433106 0.13311 0.340698 0.200091 0.261912Z" fill="#102A83"/>
</svg>
