<svg width="12" height="8" viewBox="0 0 12 8" fill="none" xmlns="http://www.w3.org/2000/svg">
<path fill-rule="evenodd" clip-rule="evenodd" d="M10.501 3.50146C10.501 3.63407 10.4483 3.76125 10.3545 3.85502C10.2608 3.94879 10.1336 4.00146 10.001 4.00146L1.00098 4.00146C0.868368 4.00146 0.741191 3.94879 0.647423 3.85502C0.553655 3.76125 0.500977 3.63407 0.500977 3.50146C0.500977 3.36886 0.553655 3.24168 0.647423 3.14791C0.741191 3.05414 0.868368 3.00146 1.00098 3.00146L10.001 3.00146C10.1336 3.00146 10.2608 3.05414 10.3545 3.14791C10.4483 3.24168 10.501 3.36886 10.501 3.50146Z" fill="#F5F5F5"/>
<path fill-rule="evenodd" clip-rule="evenodd" d="M11.3551 3.14736C11.4016 3.19381 11.4386 3.24899 11.4638 3.30973C11.489 3.37048 11.502 3.4356 11.502 3.50136C11.502 3.56713 11.489 3.63225 11.4638 3.693C11.4386 3.75374 11.4016 3.80892 11.3551 3.85536L8.35506 6.85536C8.26117 6.94925 8.13383 7.002 8.00106 7.002C7.86828 7.002 7.74095 6.94925 7.64706 6.85536C7.55317 6.76148 7.50043 6.63414 7.50043 6.50136C7.50043 6.36859 7.55317 6.24125 7.64706 6.14736L10.2941 3.50136L7.64706 0.855364C7.55317 0.761478 7.50043 0.63414 7.50043 0.501364C7.50043 0.368588 7.55317 0.241251 7.64706 0.147364C7.74095 0.0534773 7.86828 0.000732263 8.00106 0.000732269C8.13384 0.000732275 8.26117 0.0534774 8.35506 0.147364L11.3551 3.14736Z" fill="#F5F5F5"/>
</svg>
