<?xml version="1.0" encoding="utf-8"?><svg xmlns="http://www.w3.org/2000/svg" xmlns:xlink="http://www.w3.org/1999/xlink"><symbol fill="none" viewBox="0 0 11 17" id="icons--arrow-left" xmlns="http://www.w3.org/2000/svg"><path d="M10.1 2.75L4.35 8.5l5.75 5.75-1.15 2.3L.9 8.5 8.95.45l1.15 2.3z" fill="#CACACA"/></symbol><symbol fill="none" viewBox="0 0 11 17" id="icons--arrow-right" xmlns="http://www.w3.org/2000/svg"><path d="M.9 2.75L6.65 8.5.9 14.25l1.15 2.3L10.1 8.5 2.05.45.9 2.75z" fill="#292929"/></symbol><symbol fill="none" viewBox="0 0 11 17" id="icons--arrow-right-white" xmlns="http://www.w3.org/2000/svg"><path d="M.9 2.75L6.65 8.5.9 14.25l1.15 2.3L10.1 8.5 2.05.45.9 2.75z" fill="#fff"/></symbol><symbol fill="none" viewBox="0 0 20 20" id="icons--catalog" xmlns="http://www.w3.org/2000/svg"><path d="M0 4.706a1 1 0 0 0 1 1h3.706a1 1 0 0 0 1-1V1a1 1 0 0 0-1-1H1a1 1 0 0 0-1 1v3.706zm7.147 0a1 1 0 0 0 1 1h3.706a1 1 0 0 0 1-1V1a1 1 0 0 0-1-1H8.147a1 1 0 0 0-1 1v3.706zm7.117 0a1 1 0 0 0 1 1H19a1 1 0 0 0 1-1V1a1 1 0 0 0-1-1h-3.736a1 1 0 0 0-1 1v3.706zM0 11.853a1 1 0 0 0 1 1h3.706a1 1 0 0 0 1-1V8.147a1 1 0 0 0-1-1H1a1 1 0 0 0-1 1v3.706zm7.147 0a1 1 0 0 0 1 1h3.706a1 1 0 0 0 1-1V8.147a1 1 0 0 0-1-1H8.147a1 1 0 0 0-1 1v3.706zm7.117 0a1 1 0 0 0 1 1H19a1 1 0 0 0 1-1V8.147a1 1 0 0 0-1-1h-3.736a1 1 0 0 0-1 1v3.706zM0 19a1 1 0 0 0 1 1h3.706a1 1 0 0 0 1-1v-3.736a1 1 0 0 0-1-1H1a1 1 0 0 0-1 1V19zm7.147 0a1 1 0 0 0 1 1h3.706a1 1 0 0 0 1-1v-3.736a1 1 0 0 0-1-1H8.147a1 1 0 0 0-1 1V19zm7.117 0a1 1 0 0 0 1 1H19a1 1 0 0 0 1-1v-3.736a1 1 0 0 0-1-1h-3.736a1 1 0 0 0-1 1V19z" fill="#F5F5F5"/></symbol><symbol fill="none" viewBox="0 0 10 6" id="icons--dropdown" xmlns="http://www.w3.org/2000/svg"><path d="M.2.262A.756.756 0 0 1 .437.075a.7.7 0 0 1 .823.143L5 4.066 8.74.218a.743.743 0 0 1 .25-.167.694.694 0 0 1 .573.024c.09.044.17.108.237.187a.828.828 0 0 1 .153.272.886.886 0 0 1-.021.626.82.82 0 0 1-.172.258L5.51 5.782A.717.717 0 0 1 5 6a.717.717 0 0 1-.51-.218L.24 1.418a.82.82 0 0 1-.172-.258A.88.88 0 0 1 .2.262z" fill="#102A83"/></symbol><symbol fill="none" viewBox="0 0 14 12" id="icons--mail" xmlns="http://www.w3.org/2000/svg"><path d="M13.5.5H.5A.5.5 0 0 0 0 1v10a.5.5 0 0 0 .5.5h13a.5.5 0 0 0 .5-.5V1a.5.5 0 0 0-.5-.5zm-.625 1.731v8.144H1.125V2.231l-.431-.336.614-.789.669.52h10.048l.669-.52.614.79-.433.335zm-.85-.606L7 5.531 1.975 1.625l-.669-.52-.614.789.431.336 5.338 4.15a.875.875 0 0 0 1.073 0l5.341-4.149.431-.336-.614-.789-.667.519z" fill="#fff"/></symbol><symbol fill="none" viewBox="0 0 12 8" id="icons--more" xmlns="http://www.w3.org/2000/svg"><path fill-rule="evenodd" clip-rule="evenodd" d="M10.501 3.501a.5.5 0 0 1-.5.5h-9a.5.5 0 1 1 0-1h9a.5.5 0 0 1 .5.5z" fill="#F5F5F5"/><path fill-rule="evenodd" clip-rule="evenodd" d="M11.355 3.147a.501.501 0 0 1 0 .708l-3 3a.5.5 0 1 1-.708-.708l2.647-2.646L7.647.855a.5.5 0 1 1 .708-.708l3 3z" fill="#F5F5F5"/></symbol><symbol fill="none" viewBox="0 0 16 24" id="icons--phone" xmlns="http://www.w3.org/2000/svg"><path fill-rule="evenodd" clip-rule="evenodd" d="M12.5 1.5h-9A1.5 1.5 0 0 0 2 3v18a1.5 1.5 0 0 0 1.5 1.5h9A1.5 1.5 0 0 0 14 21V3a1.5 1.5 0 0 0-1.5-1.5zM3.5 0a3 3 0 0 0-3 3v18a3 3 0 0 0 3 3h9a3 3 0 0 0 3-3V3a3 3 0 0 0-3-3h-9z" fill="#102A83"/><path fill-rule="evenodd" clip-rule="evenodd" d="M8 21a1.5 1.5 0 1 0 0-3 1.5 1.5 0 0 0 0 3z" fill="#102A83"/></symbol><symbol fill="none" viewBox="0 0 12 16" id="icons--point" xmlns="http://www.w3.org/2000/svg"><path d="M10.166 8.94c-.524 1.062-1.234 2.12-1.96 3.07A31.5 31.5 0 0 1 6 14.58a31.491 31.491 0 0 1-2.206-2.57c-.726-.95-1.436-2.008-1.96-3.07C1.304 7.867 1 6.862 1 6a5 5 0 1 1 10 0c0 .862-.305 1.867-.834 2.94zM6 16s6-5.686 6-10A6 6 0 1 0 0 6c0 4.314 6 10 6 10z" fill="#fff"/><path d="M6 8a2 2 0 1 1 0-4 2 2 0 0 1 0 4zm0 1a3 3 0 1 0 0-6 3 3 0 0 0 0 6z" fill="#fff"/></symbol><symbol fill="none" viewBox="0 0 20 20" id="icons--search" xmlns="http://www.w3.org/2000/svg"><path d="M19.671 18.094l-3.776-3.765a8.797 8.797 0 0 0 1.877-5.443 8.886 8.886 0 1 0-8.886 8.886 8.797 8.797 0 0 0 5.443-1.877l3.765 3.776a1.11 1.11 0 0 0 1.577 0 1.11 1.11 0 0 0 0-1.577zM2.221 8.886a6.665 6.665 0 1 1 13.33 0 6.665 6.665 0 0 1-13.33 0z" fill="#F5F5F5"/></symbol><symbol fill="none" viewBox="0 0 285 71" id="logo" xmlns="http://www.w3.org/2000/svg"><path fill-rule="evenodd" clip-rule="evenodd" d="M86.812.533h4.27l-.117 1.029h-.378c-.34 0-.581.05-.726.153-.145.099-.266.268-.362.5-.096.235-.19.665-.287 1.297l-.895 6.16 4.979-6.453c.265-.347.442-.616.525-.81A.976.976 0 0 0 93.907 2c0-.157-.037-.264-.118-.335-.078-.07-.27-.103-.579-.103h-.33l.172-1.029h4.153l-.166 1.029c-.292 0-.541.041-.75.12a1.93 1.93 0 0 0-.576.364c-.115.107-.365.392-.745.859l-3.714 4.59 2.23 6.85c.22.687.412 1.17.58 1.451.116.202.26.355.438.454.174.104.463.154.865.154l-.14 1.016h-4.31l.165-1.017h.368c.329 0 .538-.041.621-.12.126-.107.188-.289.188-.545 0-.194-.064-.496-.195-.909l-1.877-6.003-2.135 2.628-.48 3.111a6.787 6.787 0 0 0-.093.917c0 .17.037.334.11.492a.677.677 0 0 0 .281.33c.115.066.321.1.614.1h.297l-.14 1.016h-4.319l.134-1.017h.29c.372 0 .643-.057.81-.169.168-.112.299-.306.395-.574.097-.273.185-.674.263-1.207l1.619-10.941c.071-.508.11-.847.11-1.016 0-.21-.033-.389-.095-.533a.63.63 0 0 0-.265-.31c-.112-.062-.316-.091-.616-.091h-.306l.15-1.029zM103.6.244c1.329 0 2.423.62 3.282 1.863.906 1.314 1.359 3.082 1.359 5.301 0 1.827-.305 3.542-.911 5.153-.608 1.607-1.428 2.88-2.465 3.805-1 .897-2.106 1.343-3.32 1.343-.922 0-1.72-.293-2.396-.884-.675-.587-1.21-1.413-1.604-2.475-.397-1.062-.593-2.272-.593-3.636 0-1.847.303-3.59.906-5.223.606-1.636 1.42-2.917 2.446-3.85C101.33.711 102.429.244 103.6.244zm.049 1.28c-.89 0-1.71.385-2.463 1.145-.75.765-1.377 1.922-1.878 3.471a15.696 15.696 0 0 0-.756 4.888c0 1.082.134 2.045.402 2.888.265.843.63 1.479 1.088 1.905.455.43.981.644 1.573.644.846 0 1.648-.388 2.398-1.165.75-.773 1.38-1.946 1.883-3.516.507-1.57.758-3.21.758-4.921 0-1.066-.134-2.004-.404-2.814-.271-.81-.632-1.433-1.088-1.867-.455-.438-.959-.657-1.513-.657zm6.845-.99h3.414l.903 13.51 4.861-13.51h3.507l-.164 1.028h-.415c-.268 0-.469.037-.605.108a.896.896 0 0 0-.335.322c-.086.14-.158.343-.214.6-.089.395-.145.673-.167.834l-1.672 11.428a4.836 4.836 0 0 0-.045.558c0 .355.077.62.235.797.11.128.33.195.66.195h.399l-.15 1.016h-4.325l.15-1.017h.354c.34 0 .578-.045.72-.14.143-.09.266-.248.37-.467.105-.215.183-.529.236-.942l1.892-12.94-5.589 15.506h-.754l-1.044-15.614-1.916 13.048a5.073 5.073 0 0 0-.054.59c0 .187.03.368.094.546a.623.623 0 0 0 .603.413h.614l-.142 1.017h-3.878l.164-1.017h.447c.383 0 .665-.12.842-.363.176-.244.316-.71.415-1.405l1.688-11.474c.027-.17.041-.388.041-.653 0-.301-.06-.533-.175-.702a.554.554 0 0 0-.485-.256l-.174.012h-.456l.15-1.029zm18.697 15.857h.314c.442 0 .756-.095.946-.285.193-.19.348-.694.469-1.52L132.788 1.9h-5.739l-1.86 12.614a7.264 7.264 0 0 0-.093.942c0 .34.077.583.235.723.156.141.432.211.823.211h.236l-.147 1.029h-4.333l.163-1.029h.252c.485 0 .823-.108 1.013-.326.187-.22.343-.736.463-1.55l1.64-11.052c.068-.467.102-.798.102-.992 0-.322-.064-.553-.193-.698-.129-.14-.378-.211-.75-.211h-.351l.171-1.029h11.431l-.15 1.029h-.252c-.528 0-.879.112-1.05.339-.175.227-.319.748-.44 1.562l-1.61 10.978c-.078.516-.118.868-.118 1.053 0 .315.072.546.217.686.142.141.383.211.718.211h.359l-.155 1.029h-4.325l.147-1.029zm12.238 0h.425c.644 0 .965-.347.965-1.041 0-.17-.027-.492-.078-.967L141.43 2.46l-4.585 12.296c-.161.438-.241.772-.241 1.008 0 .215.056.376.171.475.116.103.338.153.667.153h.37l-.158 1.029h-3.658l.159-1.029c.445-.008.761-.111.948-.314.187-.203.461-.768.817-1.694l5.314-13.85h1.334l1.595 13.908c.098.871.219 1.417.361 1.628.139.214.432.322.871.322l-.142 1.029h-4.019l.196-1.029zM148.353.533h7.899l.9 4.467-.72.351c-.215-.913-.462-1.607-.743-2.086-.278-.48-.586-.815-.921-1-.445-.244-1.035-.364-1.766-.364h-2.018l-.903 6.185h1.326c.56 0 .973-.087 1.241-.264.265-.178.493-.467.678-.868.187-.397.329-.975.429-1.723h.753l-1.005 6.85h-.761c.078-.619.118-1.053.118-1.293a2.05 2.05 0 0 0-.174-.855c-.115-.256-.266-.434-.45-.537-.186-.107-.534-.157-1.04-.157h-1.281l-.887 5.93a5.533 5.533 0 0 0-.054.52c0 .16.041.285.127.375.056.058.219.083.485.083h1.752c.857 0 1.556-.14 2.098-.421a3.92 3.92 0 0 0 1.383-1.24c.377-.545.811-1.483 1.299-2.817l.684.413-1.667 5.338h-9.255l.15-1.017c.533-.008.876-.049 1.029-.127a.783.783 0 0 0 .354-.393c.134-.29.241-.71.321-1.26L149.382 3.4c.062-.41.094-.699.094-.86 0-.367-.078-.623-.236-.768-.156-.14-.418-.211-.785-.211h-.242l.14-1.029zm10.975 0h4.271l-.118 1.029h-.378c-.34 0-.581.05-.726.153-.145.099-.265.268-.361.5-.097.235-.191.665-.287 1.297l-.895 6.16 4.979-6.453c.265-.347.442-.616.525-.81a.966.966 0 0 0 .085-.409c0-.157-.037-.264-.117-.335-.078-.07-.271-.103-.579-.103h-.33l.172-1.029h4.153l-.166 1.029c-.292 0-.542.041-.751.12a1.94 1.94 0 0 0-.576.364c-.115.107-.364.392-.744.859l-3.714 4.59 2.229 6.85c.22.687.413 1.17.581 1.451.116.202.261.355.437.454.174.104.464.154.866.154l-.139 1.016h-4.312l.166-1.017h.367c.33 0 .539-.041.622-.12.126-.107.187-.289.187-.545 0-.194-.064-.496-.195-.909l-1.876-6.003-2.136 2.628-.479 3.111a6.765 6.765 0 0 0-.094.917c0 .17.038.334.11.492a.679.679 0 0 0 .282.33c.115.066.321.1.613.1h.297l-.139 1.016h-4.319l.134-1.017h.289c.373 0 .643-.057.81-.169.168-.112.299-.306.396-.574.096-.273.185-.674.262-1.207l1.619-10.941c.072-.508.11-.847.11-1.016 0-.21-.033-.389-.094-.533a.631.631 0 0 0-.265-.31c-.112-.062-.316-.091-.616-.091h-.306l.15-1.029zM178.976 0l.408 5.012-.753.231c-.105-.937-.266-1.66-.479-2.173-.215-.512-.472-.884-.775-1.107-.3-.227-.761-.339-1.386-.339-.171 0-.289.037-.347.116-.062.074-.113.26-.153.55l-1.822 12.407c-.04.314-.062.57-.062.773 0 .21.037.396.113.553.074.157.182.26.313.306.134.05.418.075.852.075l-.139 1.016h-4.327l.157-1.017c.373-.008.646-.033.823-.074a.738.738 0 0 0 .413-.223 1.28 1.28 0 0 0 .241-.467 5.7 5.7 0 0 0 .196-.785l1.805-12.37c.036-.253.054-.438.054-.558 0-.104-.027-.182-.083-.232-.053-.045-.174-.07-.364-.07-.523 0-.971.128-1.338.38-.369.257-.749.698-1.143 1.34-.25.4-.579 1.086-.989 2.057l-.643-.57L171.236 0h.541v.533h6.476l.142-.533h.581zm6.383.533h4.325l-.164 1.029h-.337c-.378 0-.638.045-.777.14-.142.092-.257.248-.346.468-.115.28-.214.71-.297 1.293l-.67 4.636h5.889l.705-4.781c.075-.492.11-.79.11-.896 0-.178-.041-.348-.123-.509-.086-.16-.191-.264-.317-.314-.077-.025-.367-.037-.871-.037l.175-1.029h4.317l-.159 1.029h-.375c-.335 0-.581.054-.734.165a1.057 1.057 0 0 0-.364.471c-.091.207-.183.628-.276 1.265l-1.673 11.234a5.537 5.537 0 0 0-.069.76c0 .33.083.587.249.765.11.12.348.181.716.181h.337l-.15 1.017h-4.333l.15-1.017h.29c.308 0 .525-.024.651-.078a.855.855 0 0 0 .335-.256 1.52 1.52 0 0 0 .244-.463c.064-.194.126-.5.185-.91l.785-5.288h-5.898l-.761 5.107a7.297 7.297 0 0 0-.093.967c0 .194.04.372.12.529a.634.634 0 0 0 .335.318c.099.05.38.075.839.075l-.148 1.016h-4.332l.163-1.017h.252c.319 0 .544-.029.678-.086a.85.85 0 0 0 .346-.265c.096-.12.168-.26.216-.413.089-.281.167-.657.237-1.124l1.639-11.052c.067-.467.102-.798.102-.992a1.3 1.3 0 0 0-.099-.516c-.065-.157-.145-.26-.242-.315-.098-.053-.297-.078-.602-.078h-.351l.171-1.029zm16.972 0h1.334l1.619 14.115c.067.582.139.974.22 1.185.077.21.176.356.294.438.118.079.349.124.694.133l-.142 1.016h-4.019l.182-1.017h.44c.354 0 .602-.094.744-.276.143-.186.212-.442.212-.765 0-.178-.018-.45-.054-.822l-.377-3.405h-4.194l-1.412 3.814c-.115.318-.171.587-.171.814 0 .198.054.36.161.471.107.112.332.17.678.17h.369l-.158 1.016h-3.657l.158-1.017c.348-.016.597-.066.745-.153.147-.082.279-.219.397-.404.117-.186.307-.62.567-1.306l5.37-14.007zm1.021 9.429l-.809-7.503-2.803 7.503h3.612zm6.131-9.429h5.519c1.088 0 1.873.137 2.358.413.485.273.86.699 1.131 1.27.268.573.404 1.226.404 1.962 0 .78-.139 1.5-.412 2.148-.276.649-.657 1.177-1.142 1.579-.362.3-.855.549-1.476.751.49.153.863.335 1.114.546.351.29.628.685.831 1.19.206.504.308 1.082.308 1.727 0 .541-.069 1.082-.209 1.62a5.82 5.82 0 0 1-.624 1.52 4.566 4.566 0 0 1-.994 1.194 3.53 3.53 0 0 1-1.305.69 7.808 7.808 0 0 1-2.066.277h-5.919l.15-1.017c.477-.008.775-.033.895-.074a.801.801 0 0 0 .456-.396c.155-.294.276-.732.362-1.323l1.639-11.21c.062-.433.094-.747.094-.941 0-.178-.035-.343-.107-.496-.07-.153-.158-.26-.263-.314-.104-.058-.305-.087-.602-.087h-.309l.167-1.029zm2.636 1.355l-.911 6.16h2.379c.994 0 1.737-.143 2.227-.433.488-.289.868-.74 1.139-1.343a4.879 4.879 0 0 0 .402-1.987c0-.508-.086-.95-.258-1.326-.174-.372-.404-.645-.691-.815-.287-.169-.782-.256-1.484-.256h-2.803zm-1.09 7.326l-.856 5.88a4.023 4.023 0 0 0-.056.545c0 .177.062.314.183.4.061.059.23.088.501.088h1.546c.069 0 .437-.03 1.107-.087.508-.05.838-.095.991-.145a2.52 2.52 0 0 0 .849-.495c.271-.236.501-.525.697-.868.193-.343.343-.727.45-1.149.107-.425.16-.855.16-1.289a3.58 3.58 0 0 0-.315-1.52c-.215-.455-.509-.798-.893-1.021-.383-.227-.981-.34-1.797-.34h-2.567zm18.351-5.896c.075-.446.11-.744.11-.896 0-.306-.072-.525-.22-.662-.145-.132-.41-.198-.79-.198h-.3l.174-1.029h4.317l-.159 1.029h-.375c-.445 0-.756.116-.93.351-.176.236-.324.752-.444 1.55l-1.672 11.234c-.049.339-.07.587-.07.748 0 .347.07.595.212.735.139.141.391.211.753.211h.337l-.158 1.029h-4.324l.149-1.029h.29c.538 0 .887-.124 1.039-.367.156-.249.279-.69.376-1.327l1.396-9.334-7.27 9.152a8.704 8.704 0 0 0-.093.955c0 .33.077.57.235.71.156.141.432.211.823.211h.236l-.147 1.029h-4.333l.163-1.029h.252c.501 0 .844-.115 1.024-.347.179-.228.332-.74.452-1.529l1.649-11.052c.061-.426.093-.748.093-.955 0-.355-.064-.603-.195-.74-.132-.135-.381-.206-.748-.206h-.351l.171-1.029h4.325l-.164 1.029h-.337c-.466 0-.788.103-.967.314-.177.21-.33.74-.453 1.587l-1.374 9.065 7.298-9.21zm4.477-2.785h7.824l.92 4.442-.713.364c-.335-1.364-.742-2.277-1.222-2.736-.48-.459-1.203-.69-2.171-.69h-2.009l-1.875 12.697a5.633 5.633 0 0 0-.081.802c0 .652.33.98.984.98h.321l-.142 1.028h-4.317l.148-1.029h.329c.45 0 .769-.115.952-.347.181-.228.326-.707.431-1.434l1.648-11.255c.059-.396.088-.677.088-.847 0-.632-.292-.946-.873-.946h-.4l.158-1.029zm14.003 0h1.335l1.618 14.115c.067.582.139.974.22 1.185.078.21.177.356.295.438.117.079.348.124.693.133l-.141 1.016h-4.02l.183-1.017h.439c.354 0 .603-.094.745-.276.142-.186.211-.442.211-.765 0-.178-.018-.45-.053-.822l-.378-3.405h-4.193l-1.412 3.814c-.116.318-.172.587-.172.814 0 .198.054.36.161.471.107.112.332.17.678.17h.369l-.157 1.016h-3.658l.158-1.017c.349-.016.598-.066.745-.153.147-.082.279-.219.397-.404.117-.186.308-.62.568-1.306L247.86.533zm1.021 9.429l-.809-7.503-2.803 7.503h3.612zM263.09 0l.408 5.012-.754.231c-.104-.937-.265-1.66-.479-2.173-.215-.512-.472-.884-.774-1.107-.301-.227-.761-.339-1.386-.339-.171 0-.289.037-.348.116-.062.074-.113.26-.153.55l-1.822 12.407a6.37 6.37 0 0 0-.061.773c0 .21.037.396.112.553a.56.56 0 0 0 .313.306c.135.05.419.075.853.075l-.14 1.016h-4.327l.158-1.017c.373-.008.646-.033.823-.074a.739.739 0 0 0 .412-.223 1.28 1.28 0 0 0 .242-.467c.104-.339.168-.6.195-.785l1.806-12.37c.035-.253.054-.438.054-.558 0-.104-.027-.182-.083-.232-.054-.045-.174-.07-.365-.07-.523 0-.97.128-1.337.38-.37.257-.75.698-1.144 1.34-.249.4-.579 1.086-.988 2.057l-.644-.57L255.349 0h.541v.533h6.477l.142-.533h.581zm6.79.244c1.329 0 2.422.62 3.282 1.863.906 1.314 1.359 3.082 1.359 5.301 0 1.827-.305 3.542-.911 5.153-.608 1.607-1.428 2.88-2.465 3.805-1 .897-2.106 1.343-3.32 1.343-.922 0-1.72-.293-2.395-.884-.676-.587-1.212-1.413-1.605-2.475-.397-1.062-.593-2.272-.593-3.636 0-1.847.303-3.59.906-5.223.605-1.636 1.42-2.917 2.446-3.85C267.61.71 268.709.243 269.88.243zm.048 1.28c-.889 0-1.709.385-2.462 1.145-.75.765-1.377 1.922-1.878 3.471a15.694 15.694 0 0 0-.756 4.888c0 1.082.134 2.045.402 2.888.265.843.63 1.479 1.088 1.905.455.43.981.644 1.573.644.846 0 1.647-.388 2.398-1.165.75-.773 1.38-1.946 1.883-3.516.506-1.57.758-3.21.758-4.921 0-1.066-.133-2.004-.404-2.814s-.632-1.433-1.088-1.867c-.456-.438-.959-.657-1.514-.657zm6.908-.99h4.616c.906 0 1.592.16 2.059.478.463.319.83.79 1.092 1.417.266.625.397 1.352.397 2.182 0 1.05-.198 2.033-.595 2.95-.399.914-.94 1.604-1.626 2.062-.6.397-1.575.595-2.921.595h-1.607l-.651 4.417a5.94 5.94 0 0 0-.081.847c0 .194.035.364.102.508.07.145.158.252.268.314.11.066.313.1.611.1h.3l-.142 1.016h-4.308l.147-1.017h.337c.445 0 .759-.115.938-.35.182-.237.324-.707.429-1.418l1.64-11.185c.069-.45.102-.752.102-.909 0-.24-.038-.446-.116-.611-.08-.166-.177-.269-.291-.318-.089-.033-.379-.05-.864-.05l.164-1.029zm2.647 1.354l-1.053 7.07h1.201c.964 0 1.618-.083 1.964-.252.522-.244.962-.736 1.318-1.48.356-.739.533-1.59.533-2.54 0-.695-.113-1.269-.34-1.719-.228-.45-.525-.76-.893-.921-.24-.104-.702-.158-1.387-.158h-1.343z" fill="#102A83"/><path fill-rule="evenodd" clip-rule="evenodd" d="M90.53 58.808l-30.098.024 18.042-14.288-5.756.006-18.084 14.28-29.347-.02 42.867-34.49L90.53 58.81z" fill="#E30016"/><path fill-rule="evenodd" clip-rule="evenodd" d="M75.856 70.227l-28.86-.004L32.72 46.379l-10.302.084-.277 23.78L0 70.227V.399h22.142l-.009 22.513L50.338.4 84.935.399 48.814 29.505l27.042 40.722z" fill="#102A83"/><path fill-rule="evenodd" clip-rule="evenodd" d="M68.154 24.32l30.1-.025L80.21 38.583l5.756-.005 18.084-14.28 29.347.02-42.867 34.49L68.154 24.32z" fill="#102A83"/></symbol><symbol fill="none" viewBox="0 0 455 339" id="slider" xmlns="http://www.w3.org/2000/svg"><path d="M0 6a6 6 0 0 1 6-6h367.586a6 6 0 0 1 5.456 3.503l74.816 163.5a6.005 6.005 0 0 1 0 4.994l-74.816 163.5a6.001 6.001 0 0 1-5.456 3.503H6a6 6 0 0 1-6-6V6z" fill="#000" fill-opacity=".8"/></symbol><symbol style="position:absolute;width:0;height:0" overflow="hidden" viewBox="0 0 0 0" id="symbol-defs" xmlns="http://www.w3.org/2000/svg"/></svg>