<svg aria-hidden="true" style="position: absolute; width: 0; height: 0; overflow: hidden;" version="1.1" xmlns="http://www.w3.org/2000/svg" xmlns:xlink="http://www.w3.org/1999/xlink">
<defs>
<symbol id="icon-arrow-left" viewBox="0 0 21 32">
<path d="M19.012 5.177l-10.824 10.824 10.824 10.824-2.165 4.329-15.153-15.153 15.153-15.153 2.165 4.329z"></path>
</symbol>
<symbol id="icon-arrow-right" viewBox="0 0 21 32">
<path d="M1.694 5.177l10.824 10.824-10.824 10.824 2.165 4.329 15.153-15.153-15.153-15.153-2.165 4.329z"></path>
</symbol>
<symbol id="icon-catalog" viewBox="0 0 32 32">
<path d="M0 7.529c0 0.884 0.716 1.6 1.6 1.6h5.929c0.884 0 1.6-0.716 1.6-1.6v-5.929c0-0.884-0.716-1.6-1.6-1.6h-5.929c-0.884 0-1.6 0.716-1.6 1.6v5.929zM11.435 7.529c0 0.884 0.716 1.6 1.6 1.6h5.929c0.884 0 1.6-0.716 1.6-1.6v-5.929c0-0.884-0.716-1.6-1.6-1.6h-5.929c-0.884 0-1.6 0.716-1.6 1.6v5.929zM22.823 7.529c0 0.884 0.716 1.6 1.6 1.6h5.977c0.884 0 1.6-0.716 1.6-1.6v-5.929c0-0.884-0.716-1.6-1.6-1.6h-5.977c-0.884 0-1.6 0.716-1.6 1.6v5.929zM0 18.965c0 0.884 0.716 1.6 1.6 1.6h5.929c0.884 0 1.6-0.716 1.6-1.6v-5.929c0-0.884-0.716-1.6-1.6-1.6h-5.929c-0.884 0-1.6 0.716-1.6 1.6v5.929zM11.435 18.965c0 0.884 0.716 1.6 1.6 1.6h5.929c0.884 0 1.6-0.716 1.6-1.6v-5.929c0-0.884-0.716-1.6-1.6-1.6h-5.929c-0.884 0-1.6 0.716-1.6 1.6v5.929zM22.823 18.965c0 0.884 0.716 1.6 1.6 1.6h5.977c0.884 0 1.6-0.716 1.6-1.6v-5.929c0-0.884-0.716-1.6-1.6-1.6h-5.977c-0.884 0-1.6 0.716-1.6 1.6v5.929zM0 30.4c0 0.884 0.716 1.6 1.6 1.6h5.929c0.884 0 1.6-0.716 1.6-1.6v-5.977c0-0.884-0.716-1.6-1.6-1.6h-5.929c-0.884 0-1.6 0.716-1.6 1.6v5.977zM11.435 30.4c0 0.884 0.716 1.6 1.6 1.6h5.929c0.884 0 1.6-0.716 1.6-1.6v-5.977c0-0.884-0.716-1.6-1.6-1.6h-5.929c-0.884 0-1.6 0.716-1.6 1.6v5.977zM22.823 30.4c0 0.884 0.716 1.6 1.6 1.6h5.977c0.884 0 1.6-0.716 1.6-1.6v-5.977c0-0.884-0.716-1.6-1.6-1.6h-5.977c-0.884 0-1.6 0.716-1.6 1.6v5.977z"></path>
</symbol>
<symbol id="icon-dropdown" viewBox="0 0 53 32">
<path d="M1.067 1.397c0.357-0.42 0.787-0.76 1.264-0.999s0.993-0.373 1.518-0.395c0.525-0.022 1.049 0.070 1.541 0.269s0.944 0.502 1.329 0.892l19.946 20.52 19.946-20.52c0.385-0.39 0.837-0.693 1.33-0.892s1.016-0.291 1.541-0.269 1.041 0.156 1.518 0.395c0.477 0.239 0.907 0.578 1.264 0.999s0.635 0.913 0.818 1.45c0.183 0.537 0.266 1.109 0.247 1.681s-0.143 1.135-0.362 1.656-0.53 0.989-0.915 1.379l-22.666 23.272c-0.74 0.748-1.711 1.164-2.72 1.164s-1.98-0.416-2.72-1.164l-22.666-23.272c-0.385-0.39-0.696-0.858-0.916-1.379s-0.342-1.084-0.362-1.656c-0.020-0.573 0.064-1.144 0.247-1.681s0.46-1.030 0.818-1.45z"></path>
</symbol>
<symbol id="icon-logo" viewBox="0 0 128 32">
<path d="M39.126 0.24h1.925l-0.053 0.464h-0.17c-0.154 0-0.262 0.022-0.327 0.069-0.065 0.045-0.12 0.121-0.163 0.225-0.043 0.106-0.086 0.3-0.129 0.585l-0.403 2.777 2.244-2.909c0.119-0.157 0.199-0.277 0.237-0.365 0.026-0.058 0.038-0.119 0.038-0.184 0-0.071-0.017-0.119-0.053-0.151-0.035-0.032-0.122-0.047-0.261-0.047h-0.148l0.077-0.464h1.872l-0.075 0.464c-0.132 0-0.244 0.019-0.338 0.054-0.093 0.037-0.179 0.091-0.26 0.164-0.052 0.048-0.164 0.177-0.336 0.387l-1.674 2.069 1.005 3.087c0.099 0.309 0.186 0.527 0.262 0.654 0.052 0.091 0.117 0.16 0.197 0.205 0.078 0.047 0.209 0.069 0.39 0.069l-0.063 0.458h-1.943l0.075-0.458h0.165c0.148 0 0.243-0.019 0.28-0.054 0.057-0.048 0.084-0.13 0.084-0.246 0-0.088-0.029-0.224-0.088-0.41l-0.846-2.706-0.962 1.184-0.216 1.402c-0.028 0.184-0.042 0.322-0.042 0.413 0 0.076 0.017 0.151 0.049 0.222s0.075 0.121 0.127 0.149c0.052 0.030 0.145 0.045 0.276 0.045h0.134l-0.063 0.458h-1.947l0.060-0.458h0.13c0.168 0 0.29-0.026 0.365-0.076 0.076-0.050 0.135-0.138 0.179-0.259 0.044-0.123 0.083-0.304 0.118-0.544l0.729-4.931c0.032-0.229 0.050-0.382 0.050-0.458 0-0.095-0.015-0.175-0.042-0.24-0.029-0.065-0.069-0.112-0.119-0.14s-0.143-0.041-0.278-0.041h-0.138l0.068-0.464zM46.693 0.11c0.599 0 1.092 0.279 1.479 0.84 0.408 0.592 0.612 1.389 0.612 2.389 0 0.823-0.137 1.596-0.411 2.322-0.274 0.724-0.644 1.298-1.111 1.715-0.451 0.404-0.949 0.605-1.496 0.605-0.416 0-0.775-0.132-1.080-0.398-0.304-0.265-0.546-0.637-0.723-1.115-0.179-0.479-0.267-1.024-0.267-1.639 0-0.832 0.136-1.618 0.408-2.354 0.273-0.738 0.64-1.315 1.102-1.736 0.462-0.419 0.958-0.629 1.486-0.629zM46.715 0.687c-0.401 0-0.771 0.173-1.11 0.516-0.338 0.345-0.621 0.866-0.847 1.564-0.227 0.698-0.34 1.432-0.34 2.203 0 0.488 0.060 0.922 0.181 1.302 0.119 0.38 0.284 0.667 0.49 0.858 0.205 0.194 0.442 0.29 0.709 0.29 0.381 0 0.743-0.175 1.081-0.525 0.338-0.348 0.622-0.877 0.849-1.585 0.228-0.708 0.342-1.447 0.342-2.218 0-0.48-0.060-0.903-0.182-1.268s-0.285-0.646-0.49-0.842c-0.205-0.198-0.432-0.296-0.682-0.296zM49.801 0.24h1.539l0.407 6.090 2.191-6.090h1.581l-0.074 0.464h-0.187c-0.121 0-0.211 0.017-0.273 0.049-0.062 0.033-0.111 0.082-0.151 0.145s-0.071 0.155-0.096 0.27c-0.040 0.179-0.065 0.304-0.075 0.376l-0.754 5.151c-0.013 0.106-0.020 0.188-0.020 0.251 0 0.16 0.035 0.279 0.106 0.359 0.050 0.058 0.149 0.088 0.297 0.088h0.18l-0.068 0.458h-1.949l0.068-0.458h0.16c0.153 0 0.261-0.021 0.325-0.063 0.064-0.041 0.12-0.112 0.167-0.21 0.047-0.097 0.082-0.239 0.106-0.425l0.853-5.832-2.519 6.989h-0.34l-0.471-7.037-0.864 5.881c-0.016 0.119-0.024 0.209-0.024 0.266 0 0.084 0.014 0.166 0.042 0.246 0.018 0.056 0.052 0.1 0.1 0.134 0.048 0.035 0.106 0.052 0.171 0.052h0.277l-0.064 0.458h-1.748l0.074-0.458h0.201c0.173 0 0.3-0.054 0.38-0.164s0.142-0.32 0.187-0.633l0.761-5.171c0.012-0.076 0.018-0.175 0.018-0.294 0-0.136-0.027-0.24-0.079-0.316s-0.124-0.116-0.219-0.116l-0.078 0.006h-0.206l0.068-0.464zM58.227 7.388h0.142c0.199 0 0.341-0.043 0.426-0.128 0.087-0.086 0.157-0.313 0.211-0.685l0.841-5.717h-2.587l-0.838 5.685c-0.028 0.188-0.042 0.332-0.042 0.425 0 0.153 0.035 0.263 0.106 0.326s0.195 0.095 0.371 0.095h0.106l-0.066 0.464h-1.953l0.073-0.464h0.114c0.219 0 0.371-0.049 0.457-0.147 0.084-0.099 0.155-0.331 0.209-0.698l0.739-4.981c0.031-0.21 0.046-0.359 0.046-0.447 0-0.145-0.029-0.249-0.087-0.315-0.058-0.063-0.17-0.095-0.338-0.095h-0.158l0.077-0.464h5.152l-0.068 0.464h-0.114c-0.238 0-0.396 0.050-0.473 0.153-0.079 0.102-0.144 0.337-0.198 0.704l-0.726 4.948c-0.035 0.233-0.053 0.391-0.053 0.475 0 0.142 0.032 0.246 0.098 0.309 0.064 0.064 0.173 0.095 0.324 0.095h0.162l-0.070 0.464h-1.949l0.066-0.464zM63.743 7.388h0.192c0.29 0 0.435-0.157 0.435-0.469 0-0.076-0.012-0.222-0.035-0.436l-0.591-5.374-2.066 5.542c-0.073 0.198-0.109 0.348-0.109 0.455 0 0.097 0.025 0.169 0.077 0.214 0.052 0.047 0.152 0.069 0.301 0.069h0.167l-0.071 0.464h-1.649l0.072-0.464c0.201-0.004 0.343-0.050 0.427-0.142s0.208-0.346 0.368-0.763l2.395-6.242h0.601l0.719 6.268c0.044 0.393 0.099 0.639 0.163 0.734 0.063 0.097 0.195 0.145 0.393 0.145l-0.064 0.464h-1.811l0.088-0.464zM66.863 0.24h3.56l0.406 2.013-0.325 0.158c-0.097-0.412-0.208-0.724-0.335-0.94-0.125-0.216-0.264-0.367-0.415-0.451-0.201-0.11-0.466-0.164-0.796-0.164h-0.91l-0.407 2.788h0.598c0.252 0 0.439-0.039 0.559-0.119 0.119-0.080 0.222-0.21 0.306-0.391 0.084-0.179 0.148-0.439 0.193-0.776h0.339l-0.453 3.088h-0.343c0.035-0.279 0.053-0.475 0.053-0.583 0-0.143-0.027-0.27-0.078-0.386s-0.12-0.196-0.203-0.242c-0.084-0.048-0.241-0.071-0.469-0.071h-0.577l-0.4 2.672c-0.016 0.121-0.024 0.199-0.024 0.234 0 0.073 0.018 0.128 0.057 0.169 0.025 0.026 0.099 0.037 0.219 0.037h0.79c0.386 0 0.701-0.063 0.946-0.19 0.244-0.128 0.452-0.315 0.623-0.558 0.17-0.246 0.366-0.669 0.585-1.27l0.308 0.186-0.751 2.406h-4.171l0.068-0.458c0.24-0.004 0.395-0.022 0.464-0.058 0.068-0.034 0.121-0.093 0.16-0.177 0.060-0.13 0.109-0.32 0.145-0.568l0.743-5.058c0.028-0.184 0.042-0.315 0.042-0.387 0-0.166-0.035-0.281-0.106-0.346-0.070-0.063-0.188-0.095-0.354-0.095h-0.109l0.063-0.464zM71.81 0.24h1.925l-0.053 0.464h-0.17c-0.153 0-0.262 0.022-0.327 0.069-0.065 0.045-0.119 0.121-0.163 0.225-0.044 0.106-0.086 0.3-0.129 0.585l-0.403 2.777 2.244-2.909c0.119-0.157 0.199-0.277 0.237-0.365 0.027-0.058 0.038-0.119 0.038-0.184 0-0.071-0.017-0.119-0.053-0.151s-0.122-0.047-0.261-0.047h-0.149l0.078-0.464h1.872l-0.075 0.464c-0.132 0-0.244 0.019-0.338 0.054-0.093 0.037-0.178 0.091-0.26 0.164-0.052 0.048-0.164 0.177-0.335 0.387l-1.674 2.069 1.005 3.087c0.099 0.309 0.186 0.527 0.262 0.654 0.052 0.091 0.118 0.16 0.197 0.205 0.078 0.047 0.209 0.069 0.39 0.069l-0.063 0.458h-1.943l0.075-0.458h0.165c0.149 0 0.243-0.019 0.28-0.054 0.057-0.048 0.084-0.13 0.084-0.246 0-0.088-0.029-0.224-0.088-0.41l-0.846-2.706-0.963 1.184-0.216 1.402c-0.028 0.184-0.042 0.322-0.042 0.413 0 0.076 0.017 0.151 0.050 0.222s0.075 0.121 0.127 0.149c0.052 0.030 0.145 0.045 0.276 0.045h0.134l-0.063 0.458h-1.947l0.060-0.458h0.13c0.168 0 0.29-0.026 0.365-0.076s0.135-0.138 0.178-0.259c0.043-0.123 0.083-0.304 0.118-0.544l0.73-4.931c0.032-0.229 0.050-0.382 0.050-0.458 0-0.095-0.015-0.175-0.042-0.24-0.029-0.065-0.069-0.112-0.119-0.14s-0.142-0.041-0.278-0.041h-0.138l0.068-0.464zM80.665 0l0.184 2.259-0.339 0.104c-0.047-0.423-0.12-0.748-0.216-0.979s-0.213-0.399-0.349-0.499c-0.135-0.102-0.343-0.153-0.625-0.153-0.077 0-0.13 0.017-0.156 0.052-0.028 0.033-0.051 0.117-0.069 0.248l-0.821 5.592c-0.018 0.142-0.028 0.257-0.028 0.348 0 0.095 0.017 0.179 0.051 0.25s0.082 0.117 0.141 0.138c0.060 0.023 0.188 0.034 0.384 0.034l-0.063 0.458h-1.95l0.071-0.458c0.168-0.004 0.291-0.015 0.371-0.034 0.081-0.017 0.143-0.052 0.186-0.1s0.080-0.119 0.109-0.21c0.047-0.153 0.076-0.27 0.088-0.354l0.814-5.575c0.016-0.114 0.024-0.197 0.024-0.251 0-0.047-0.012-0.082-0.037-0.104-0.024-0.020-0.078-0.032-0.164-0.032-0.236 0-0.438 0.058-0.603 0.171-0.166 0.116-0.338 0.315-0.515 0.604-0.113 0.181-0.261 0.49-0.446 0.927l-0.29-0.257 0.761-2.177h0.244v0.24h2.919l0.064-0.24h0.262zM83.542 0.24h1.949l-0.074 0.464h-0.152c-0.17 0-0.288 0.020-0.35 0.063-0.064 0.041-0.116 0.112-0.156 0.21-0.052 0.126-0.096 0.32-0.134 0.583l-0.302 2.090h2.654l0.318-2.155c0.034-0.222 0.050-0.356 0.050-0.404 0-0.080-0.018-0.157-0.055-0.229-0.039-0.073-0.086-0.119-0.143-0.141-0.035-0.011-0.165-0.017-0.393-0.017l0.079-0.464h1.946l-0.072 0.464h-0.169c-0.151 0-0.262 0.024-0.331 0.075-0.070 0.048-0.124 0.119-0.164 0.212-0.041 0.093-0.082 0.283-0.124 0.57l-0.754 5.063c-0.021 0.145-0.031 0.259-0.031 0.343 0 0.149 0.037 0.264 0.112 0.344 0.050 0.054 0.157 0.082 0.323 0.082h0.152l-0.068 0.458h-1.953l0.068-0.458h0.131c0.139 0 0.237-0.011 0.293-0.035s0.108-0.061 0.151-0.115c0.043-0.052 0.080-0.123 0.11-0.209 0.029-0.088 0.057-0.225 0.083-0.41l0.354-2.384h-2.658l-0.343 2.302c-0.028 0.188-0.042 0.335-0.042 0.436 0 0.087 0.018 0.168 0.054 0.238 0.037 0.071 0.087 0.119 0.151 0.143 0.045 0.023 0.171 0.034 0.378 0.034l-0.067 0.458h-1.952l0.073-0.458h0.114c0.144 0 0.245-0.013 0.306-0.039 0.060-0.024 0.112-0.065 0.156-0.119s0.076-0.117 0.097-0.186c0.040-0.127 0.075-0.296 0.107-0.507l0.739-4.981c0.030-0.21 0.046-0.359 0.046-0.447 0-0.084-0.014-0.162-0.045-0.233s-0.065-0.117-0.109-0.142c-0.044-0.024-0.134-0.035-0.271-0.035h-0.158l0.077-0.464zM91.191 0.24h0.601l0.73 6.361c0.030 0.263 0.063 0.439 0.099 0.534 0.035 0.095 0.079 0.16 0.132 0.197 0.053 0.035 0.157 0.056 0.313 0.060l-0.064 0.458h-1.811l0.082-0.458h0.198c0.16 0 0.271-0.043 0.335-0.125 0.064-0.084 0.096-0.199 0.096-0.345 0-0.080-0.008-0.203-0.024-0.371l-0.17-1.534h-1.89l-0.636 1.719c-0.052 0.143-0.077 0.265-0.077 0.367 0 0.089 0.024 0.162 0.073 0.212s0.15 0.076 0.306 0.076h0.166l-0.071 0.458h-1.648l0.071-0.458c0.157-0.008 0.269-0.030 0.336-0.069 0.066-0.037 0.126-0.099 0.179-0.182s0.138-0.279 0.256-0.589l2.42-6.313zM91.652 4.49l-0.365-3.382-1.263 3.382h1.628zM94.415 0.24h2.487c0.49 0 0.844 0.061 1.063 0.186 0.219 0.123 0.388 0.315 0.51 0.572 0.121 0.259 0.182 0.553 0.182 0.885 0 0.352-0.063 0.676-0.186 0.968-0.124 0.292-0.296 0.531-0.515 0.712-0.163 0.136-0.385 0.248-0.665 0.339 0.221 0.069 0.389 0.151 0.502 0.246 0.158 0.131 0.283 0.309 0.375 0.537 0.093 0.227 0.139 0.488 0.139 0.778 0 0.244-0.031 0.488-0.094 0.73-0.063 0.244-0.156 0.473-0.281 0.685s-0.274 0.391-0.448 0.538c-0.173 0.145-0.37 0.248-0.588 0.311-0.306 0.084-0.617 0.125-0.931 0.125h-2.668l0.068-0.458c0.215-0.004 0.349-0.015 0.403-0.034 0.087-0.028 0.156-0.089 0.206-0.179 0.070-0.132 0.124-0.33 0.163-0.596l0.739-5.052c0.028-0.196 0.042-0.337 0.042-0.425 0-0.080-0.016-0.155-0.048-0.223s-0.071-0.117-0.119-0.142c-0.047-0.026-0.137-0.039-0.271-0.039h-0.139l0.075-0.464zM95.603 0.851l-0.411 2.776h1.072c0.448 0 0.783-0.065 1.004-0.196s0.391-0.333 0.513-0.605c0.12-0.274 0.181-0.572 0.181-0.896 0-0.229-0.039-0.428-0.116-0.598-0.078-0.168-0.182-0.291-0.311-0.367s-0.352-0.115-0.669-0.115h-1.263zM95.112 4.153l-0.386 2.65c-0.017 0.11-0.025 0.192-0.025 0.246 0 0.080 0.028 0.141 0.082 0.181 0.028 0.026 0.104 0.039 0.226 0.039h0.697c0.031 0 0.197-0.013 0.499-0.039 0.229-0.022 0.378-0.043 0.447-0.065 0.134-0.045 0.262-0.119 0.383-0.223 0.122-0.106 0.226-0.237 0.314-0.391 0.087-0.155 0.155-0.328 0.203-0.518 0.048-0.192 0.072-0.386 0.072-0.581 0-0.251-0.047-0.479-0.142-0.685-0.097-0.205-0.229-0.359-0.402-0.46-0.173-0.102-0.442-0.153-0.81-0.153h-1.157zM103.383 1.495c0.034-0.201 0.050-0.335 0.050-0.404 0-0.138-0.032-0.236-0.099-0.298-0.065-0.060-0.185-0.090-0.356-0.090h-0.135l0.078-0.464h1.946l-0.072 0.464h-0.169c-0.201 0-0.341 0.052-0.419 0.158s-0.146 0.339-0.2 0.698l-0.754 5.063c-0.022 0.153-0.032 0.265-0.032 0.337 0 0.156 0.032 0.268 0.096 0.331 0.063 0.064 0.176 0.095 0.339 0.095h0.152l-0.071 0.464h-1.949l0.067-0.464h0.131c0.242 0 0.4-0.056 0.468-0.166 0.070-0.112 0.126-0.311 0.169-0.598l0.629-4.207-3.277 4.125c-0.028 0.207-0.042 0.35-0.042 0.43 0 0.149 0.035 0.257 0.106 0.32s0.195 0.095 0.371 0.095h0.106l-0.066 0.464h-1.953l0.073-0.464h0.114c0.226 0 0.38-0.052 0.462-0.157 0.081-0.103 0.15-0.333 0.204-0.689l0.743-4.981c0.028-0.192 0.042-0.337 0.042-0.43 0-0.16-0.029-0.272-0.088-0.333s-0.172-0.093-0.337-0.093h-0.158l0.077-0.464h1.949l-0.074 0.464h-0.152c-0.21 0-0.355 0.047-0.436 0.142s-0.149 0.333-0.204 0.715l-0.619 4.086 3.289-4.151zM105.4 0.24h3.526l0.415 2.002-0.321 0.164c-0.151-0.615-0.334-1.026-0.551-1.233s-0.542-0.311-0.978-0.311h-0.905l-0.845 5.723c-0.024 0.156-0.037 0.277-0.037 0.361 0 0.294 0.149 0.441 0.444 0.441h0.145l-0.064 0.464h-1.946l0.067-0.464h0.148c0.203 0 0.347-0.052 0.429-0.157 0.082-0.103 0.147-0.318 0.194-0.646l0.743-5.073c0.027-0.179 0.040-0.306 0.040-0.382 0-0.285-0.132-0.426-0.393-0.426h-0.18l0.071-0.464zM111.712 0.24h0.602l0.729 6.361c0.030 0.263 0.063 0.439 0.099 0.534 0.035 0.095 0.080 0.16 0.133 0.197 0.053 0.035 0.157 0.056 0.312 0.060l-0.064 0.458h-1.812l0.082-0.458h0.198c0.16 0 0.272-0.043 0.336-0.125 0.064-0.084 0.095-0.199 0.095-0.345 0-0.080-0.008-0.203-0.024-0.371l-0.17-1.534h-1.89l-0.636 1.719c-0.052 0.143-0.078 0.265-0.078 0.367 0 0.089 0.024 0.162 0.073 0.212s0.15 0.076 0.306 0.076h0.166l-0.071 0.458h-1.649l0.071-0.458c0.157-0.008 0.27-0.030 0.336-0.069 0.066-0.037 0.126-0.099 0.179-0.182s0.139-0.279 0.256-0.589l2.42-6.313zM112.172 4.49l-0.365-3.382-1.263 3.382h1.628zM118.576 0l0.184 2.259-0.34 0.104c-0.047-0.423-0.119-0.748-0.216-0.979s-0.213-0.399-0.349-0.499c-0.136-0.102-0.343-0.153-0.625-0.153-0.077 0-0.13 0.017-0.157 0.052-0.028 0.033-0.051 0.117-0.069 0.248l-0.821 5.592c-0.018 0.142-0.028 0.257-0.028 0.348 0 0.095 0.017 0.179 0.050 0.25s0.082 0.117 0.141 0.138c0.061 0.023 0.189 0.034 0.384 0.034l-0.063 0.458h-1.95l0.071-0.458c0.168-0.004 0.291-0.015 0.371-0.034 0.081-0.017 0.142-0.052 0.186-0.1s0.080-0.119 0.109-0.21c0.047-0.153 0.076-0.27 0.088-0.354l0.814-5.575c0.016-0.114 0.024-0.197 0.024-0.251 0-0.047-0.012-0.082-0.037-0.104-0.024-0.020-0.078-0.032-0.165-0.032-0.236 0-0.437 0.058-0.603 0.171-0.167 0.116-0.338 0.315-0.516 0.604-0.112 0.181-0.261 0.49-0.445 0.927l-0.29-0.257 0.761-2.177h0.244v0.24h2.919l0.064-0.24h0.262zM121.636 0.11c0.599 0 1.092 0.279 1.479 0.84 0.408 0.592 0.612 1.389 0.612 2.389 0 0.823-0.137 1.596-0.411 2.322-0.274 0.724-0.644 1.298-1.111 1.715-0.451 0.404-0.949 0.605-1.496 0.605-0.416 0-0.775-0.132-1.079-0.398-0.305-0.265-0.546-0.637-0.723-1.115-0.179-0.479-0.267-1.024-0.267-1.639 0-0.832 0.137-1.618 0.408-2.354 0.273-0.738 0.64-1.315 1.102-1.736 0.462-0.419 0.958-0.629 1.486-0.629zM121.658 0.687c-0.401 0-0.77 0.173-1.11 0.516-0.338 0.345-0.621 0.866-0.846 1.564-0.227 0.698-0.341 1.432-0.341 2.203 0 0.488 0.060 0.922 0.181 1.302 0.119 0.38 0.284 0.667 0.49 0.858 0.205 0.194 0.442 0.29 0.709 0.29 0.381 0 0.742-0.175 1.081-0.525 0.338-0.348 0.622-0.877 0.849-1.585 0.228-0.708 0.342-1.447 0.342-2.218 0-0.48-0.060-0.903-0.182-1.268s-0.285-0.646-0.49-0.842c-0.206-0.198-0.432-0.296-0.682-0.296zM124.771 0.24h2.080c0.408 0 0.718 0.073 0.928 0.216 0.209 0.143 0.374 0.356 0.492 0.639 0.12 0.281 0.179 0.609 0.179 0.983 0 0.473-0.089 0.916-0.268 1.329-0.18 0.412-0.424 0.723-0.733 0.929-0.27 0.179-0.71 0.268-1.317 0.268h-0.724l-0.293 1.991c-0.024 0.16-0.037 0.287-0.037 0.382 0 0.087 0.016 0.164 0.046 0.229 0.032 0.065 0.071 0.114 0.121 0.141 0.050 0.030 0.141 0.045 0.275 0.045h0.135l-0.064 0.458h-1.942l0.066-0.458h0.152c0.201 0 0.342-0.052 0.423-0.158 0.082-0.106 0.146-0.318 0.193-0.639l0.739-5.041c0.031-0.203 0.046-0.339 0.046-0.41 0-0.108-0.017-0.201-0.052-0.275s-0.080-0.121-0.131-0.143c-0.040-0.015-0.171-0.022-0.389-0.022l0.074-0.464zM125.964 0.851l-0.475 3.186h0.541c0.434 0 0.729-0.037 0.885-0.114 0.235-0.11 0.434-0.332 0.594-0.667 0.16-0.333 0.24-0.717 0.24-1.145 0-0.313-0.051-0.572-0.153-0.774s-0.237-0.343-0.402-0.415c-0.108-0.047-0.316-0.071-0.625-0.071h-0.605z"></path>
<path d="M40.803 26.505l-13.566 0.011 8.132-6.44-2.594 0.003-8.15 6.436-13.227-0.009 19.32-15.545 10.085 15.544z"></path>
<path d="M34.189 31.652l-13.008-0.002-6.434-10.747-4.643 0.038-0.125 10.718-9.979-0.007v-31.472h9.979l-0.004 10.147 12.712-10.146 15.593-0-16.28 13.118 12.188 18.354z"></path>
<path d="M30.717 10.961l13.566-0.011-8.132 6.44 2.594-0.003 8.151-6.435 13.227 0.009-19.32 15.545-10.085-15.544z"></path>
</symbol>
<symbol id="icon-mail" viewBox="0 0 37 32">
<path d="M36 1.333h-34.667c-0.738 0-1.333 0.596-1.333 1.333v26.667c0 0.738 0.596 1.333 1.333 1.333h34.667c0.738 0 1.333-0.596 1.333-1.333v-26.667c0-0.738-0.596-1.333-1.333-1.333zM34.333 5.95v21.717h-31.333v-21.717l-1.15-0.896 1.637-2.104 1.783 1.388h26.796l1.783-1.388 1.637 2.104-1.154 0.896zM32.067 4.333l-13.4 10.417-15.183-11.804-1.637 2.104 1.15 0.896 14.233 11.067c0.409 0.318 0.913 0.491 1.431 0.491s1.022-0.173 1.431-0.491l15.392-11.958-1.637-2.104-1.779 1.383z"></path>
</symbol>
<symbol id="icon-more" viewBox="0 0 48 32">
<path d="M42.004 14.006c0 0.53-0.211 1.039-0.586 1.414s-0.884 0.586-1.414 0.586h-36c-0.53 0-1.039-0.211-1.414-0.586s-0.586-0.884-0.586-1.414c0-0.53 0.211-1.039 0.586-1.414s0.884-0.586 1.414-0.586h36c0.53 0 1.039 0.211 1.414 0.586s0.586 0.884 0.586 1.414z"></path>
<path d="M45.42 12.589c0.186 0.186 0.334 0.407 0.435 0.649s0.153 0.503 0.153 0.767c0 0.263-0.052 0.524-0.153 0.767s-0.249 0.464-0.435 0.649l-12 12c-0.376 0.376-0.885 0.587-1.416 0.587s-1.040-0.211-1.416-0.587c-0.376-0.376-0.587-0.885-0.587-1.416s0.211-1.040 0.587-1.416l10.588-10.584-10.588-10.584c-0.376-0.376-0.587-0.885-0.587-1.416s0.211-1.040 0.587-1.416c0.376-0.376 0.885-0.587 1.416-0.587s1.040 0.211 1.416 0.587l12 12z"></path>
</symbol>
<symbol id="icon-phone" viewBox="0 0 21 32">
<path d="M16.667 2c0.53 0 1.039 0.211 1.414 0.586s0.586 0.884 0.586 1.414v24c0 0.53-0.211 1.039-0.586 1.414s-0.884 0.586-1.414 0.586h-12c-0.53 0-1.039-0.211-1.414-0.586s-0.586-0.884-0.586-1.414v-24c0-0.53 0.211-1.039 0.586-1.414s0.884-0.586 1.414-0.586h12zM4.667 0c-1.061 0-2.078 0.421-2.828 1.172s-1.172 1.768-1.172 2.828v24c0 1.061 0.421 2.078 1.172 2.828s1.768 1.172 2.828 1.172h12c1.061 0 2.078-0.421 2.828-1.172s1.172-1.768 1.172-2.828v-24c0-1.061-0.421-2.078-1.172-2.828s-1.768-1.172-2.828-1.172h-12z"></path>
<path d="M10.667 28c0.53 0 1.039-0.211 1.414-0.586s0.586-0.884 0.586-1.414c0-0.53-0.211-1.039-0.586-1.414s-0.884-0.586-1.414-0.586c-0.53 0-1.039 0.211-1.414 0.586s-0.586 0.884-0.586 1.414c0 0.53 0.211 1.039 0.586 1.414s0.884 0.586 1.414 0.586z"></path>
</symbol>
<symbol id="icon-point" viewBox="0 0 24 32">
<path d="M20.332 17.88c-1.048 2.124-2.468 4.24-3.92 6.14-1.377 1.791-2.85 3.507-4.412 5.14-1.562-1.633-3.035-3.349-4.412-5.14-1.452-1.9-2.872-4.016-3.92-6.14-1.060-2.146-1.668-4.156-1.668-5.88 0-2.652 1.054-5.196 2.929-7.071s4.419-2.929 7.071-2.929c2.652 0 5.196 1.054 7.071 2.929s2.929 4.419 2.929 7.071c0 1.724-0.61 3.734-1.668 5.88zM12 32c0 0 12-11.372 12-20 0-3.183-1.264-6.235-3.515-8.485s-5.303-3.515-8.485-3.515-6.235 1.264-8.485 3.515c-2.25 2.25-3.515 5.303-3.515 8.485 0 8.628 12 20 12 20z"></path>
<path d="M12 16c-1.061 0-2.078-0.421-2.828-1.172s-1.172-1.768-1.172-2.828c0-1.061 0.421-2.078 1.172-2.828s1.768-1.172 2.828-1.172c1.061 0 2.078 0.421 2.828 1.172s1.172 1.768 1.172 2.828c0 1.061-0.421 2.078-1.172 2.828s-1.768 1.172-2.828 1.172zM12 18c1.591 0 3.117-0.632 4.243-1.757s1.757-2.651 1.757-4.243c0-1.591-0.632-3.117-1.757-4.243s-2.651-1.757-4.243-1.757c-1.591 0-3.117 0.632-4.243 1.757s-1.757 2.651-1.757 4.243c0 1.591 0.632 3.117 1.757 4.243s2.651 1.757 4.243 1.757z"></path>
</symbol>
<symbol id="icon-search" viewBox="0 0 32 32">
<path d="M31.474 28.951l-6.042-6.025c1.95-2.484 3.007-5.551 3.004-8.708 0-2.812-0.834-5.561-2.396-7.899s-3.783-4.16-6.381-5.237c-2.598-1.076-5.457-1.358-8.215-0.809s-5.291 1.903-7.28 3.891c-1.988 1.988-3.342 4.522-3.891 7.28s-0.267 5.617 0.809 8.215c1.076 2.598 2.898 4.818 5.237 6.381s5.087 2.396 7.899 2.396c3.158 0.004 6.225-1.054 8.708-3.004l6.025 6.042c0.165 0.167 0.362 0.299 0.578 0.389s0.449 0.137 0.684 0.137 0.467-0.046 0.684-0.137c0.216-0.090 0.413-0.223 0.578-0.389 0.167-0.165 0.299-0.362 0.389-0.578s0.137-0.449 0.137-0.684-0.046-0.467-0.137-0.684c-0.090-0.216-0.223-0.413-0.389-0.578zM3.554 14.218c0-2.109 0.625-4.171 1.797-5.924s2.837-3.12 4.786-3.927c1.948-0.807 4.092-1.018 6.161-0.607s3.968 1.427 5.46 2.918c1.491 1.491 2.507 3.391 2.918 5.46s0.2 4.212-0.607 6.161c-0.807 1.948-2.174 3.614-3.927 4.786s-3.815 1.797-5.924 1.797c-2.828 0-5.54-1.123-7.54-3.123s-3.123-4.712-3.123-7.54z"></path>
</symbol>
</defs>
</svg>
