<svg width="285" height="71" viewBox="0 0 285 71" fill="none" xmlns="http://www.w3.org/2000/svg">
<path fill-rule="evenodd" clip-rule="evenodd" d="M86.8118 0.533147H91.0825L90.9647 1.56186H90.587C90.2464 1.56186 90.0056 1.61179 89.8608 1.71507C89.716 1.81384 89.5954 1.9833 89.4988 2.21508C89.4029 2.45023 89.3086 2.8801 89.212 3.51202L88.3175 9.67293L93.2959 3.21908C93.5609 2.8717 93.7376 2.60344 93.8212 2.40927C93.8796 2.28074 93.9066 2.14439 93.9066 2.00016C93.9066 1.84302 93.8695 1.73582 93.7887 1.6651C93.7112 1.59497 93.5182 1.56186 93.2101 1.56186H92.8806L93.0524 0.533147H97.2053L97.0392 1.56186C96.7468 1.56186 96.4976 1.60336 96.2889 1.68193C96.0824 1.76445 95.8921 1.88453 95.7125 2.04562C95.5975 2.15279 95.3483 2.43788 94.9678 2.90481L91.2537 7.49547L93.4834 14.3455C93.7034 15.0319 93.8959 15.5151 94.0648 15.7962C94.1798 15.9983 94.3247 16.1515 94.502 16.2503C94.676 16.3541 94.965 16.4035 95.3674 16.4035L95.2276 17.4198H90.9164L91.0825 16.4035H91.4496C91.779 16.4035 91.9884 16.3619 92.0714 16.2834C92.1971 16.1762 92.2588 15.9944 92.2588 15.7385C92.2588 15.5443 92.1949 15.2423 92.0635 14.8293L90.1874 8.82551L88.052 11.4536L87.5728 14.565C87.511 14.9735 87.4791 15.2794 87.4791 15.482C87.4791 15.6515 87.5161 15.8164 87.5885 15.9736C87.6609 16.1307 87.7546 16.2424 87.8702 16.3041C87.9853 16.3704 88.1912 16.4035 88.4836 16.4035H88.7811L88.6419 17.4198H84.3223L84.4564 16.4035H84.7454C85.118 16.4035 85.3886 16.3457 85.5552 16.234C85.7242 16.1223 85.8549 15.9281 85.9514 15.6599C86.048 15.3871 86.1361 14.9864 86.2141 14.4533L87.8326 3.51202C87.9044 3.00413 87.9426 2.66518 87.9426 2.49569C87.9426 2.28525 87.91 2.10733 87.8483 1.96309C87.7843 1.81831 87.6957 1.71507 87.5834 1.65275C87.4706 1.59104 87.2669 1.56186 86.9672 1.56186H86.6614L86.8118 0.533147ZM103.601 0.244134C104.93 0.244134 106.024 0.863695 106.883 2.10733C107.789 3.42112 108.242 5.18947 108.242 7.40847C108.242 9.23463 107.937 10.9497 107.331 12.5609C106.723 14.1682 105.903 15.4404 104.866 16.3664C103.866 17.2627 102.76 17.7088 101.546 17.7088C100.624 17.7088 99.8256 17.4159 99.1505 16.8249C98.4753 16.2379 97.9394 15.4118 97.546 14.35C97.1492 13.2882 96.9533 12.0777 96.9533 10.714C96.9533 8.86705 97.2558 7.12338 97.8591 5.49139C98.4647 3.85492 99.279 2.57426 100.305 1.64043C101.331 0.711065 102.43 0.244134 103.601 0.244134ZM103.65 1.52479C102.76 1.52479 101.94 1.90924 101.187 2.66911C100.437 3.43403 99.8099 4.59066 99.3087 6.14017C98.8048 7.68964 98.5533 9.31713 98.5533 11.0277C98.5533 12.1103 98.6869 13.0733 98.9552 13.9162C99.2201 14.7591 99.5843 15.395 100.043 15.8209C100.498 16.2503 101.024 16.4652 101.616 16.4652C102.462 16.4652 103.264 16.0769 104.014 15.3002C104.764 14.5274 105.394 13.3539 105.897 11.7842C106.404 10.2139 106.655 8.57354 106.655 6.86297C106.655 5.79726 106.521 4.85947 106.251 4.04912C105.98 3.23928 105.619 2.61579 105.163 2.18197C104.708 1.74367 104.204 1.52479 103.65 1.52479ZM110.495 0.533147H113.909L114.812 14.0442L119.673 0.533147H123.18L123.016 1.56186H122.601C122.333 1.56186 122.132 1.59944 121.996 1.66961C121.859 1.74367 121.749 1.85142 121.661 1.99173C121.575 2.13203 121.503 2.33463 121.447 2.59108C121.358 2.9873 121.302 3.26454 121.28 3.4256L119.608 14.854C119.579 15.0897 119.563 15.2715 119.563 15.4118C119.563 15.7671 119.64 16.0314 119.798 16.2093C119.908 16.3372 120.128 16.4035 120.458 16.4035H120.857L120.707 17.4198H116.382L116.532 16.4035H116.886C117.226 16.4035 117.464 16.358 117.606 16.2632C117.749 16.1723 117.872 16.0151 117.976 15.7962C118.081 15.5813 118.159 15.267 118.212 14.854L120.104 1.91316L114.515 17.4198H113.761L112.717 1.80596L110.801 14.854C110.766 15.1183 110.747 15.317 110.747 15.4449C110.747 15.6307 110.777 15.8125 110.841 15.9904C110.881 16.1145 110.956 16.2132 111.064 16.2878C111.17 16.3664 111.299 16.4035 111.444 16.4035H112.058L111.916 17.4198H108.038L108.202 16.4035H108.649C109.032 16.4035 109.314 16.2834 109.491 16.0398C109.667 15.7962 109.807 15.3293 109.906 14.6351L111.594 3.16126C111.621 2.99181 111.635 2.77293 111.635 2.50805C111.635 2.20668 111.575 1.97545 111.46 1.80596C111.345 1.63647 111.184 1.5495 110.975 1.5495L110.801 1.56186H110.345L110.495 0.533147ZM129.192 16.3911H129.506C129.948 16.3911 130.262 16.2957 130.452 16.106C130.645 15.9158 130.8 15.4118 130.921 14.5852L132.788 1.90081H127.049L125.189 14.515C125.128 14.9325 125.096 15.2508 125.096 15.4573C125.096 15.7962 125.173 16.0398 125.331 16.1801C125.487 16.321 125.763 16.3911 126.154 16.3911H126.39L126.243 17.4198H121.91L122.073 16.3911H122.325C122.81 16.3911 123.148 16.2834 123.338 16.0645C123.525 15.8456 123.681 15.3293 123.801 14.515L125.441 3.46263C125.509 2.99573 125.543 2.66518 125.543 2.47098C125.543 2.14886 125.479 1.91763 125.35 1.77285C125.221 1.63254 124.972 1.56186 124.6 1.56186H124.249L124.42 0.533147H135.851L135.701 1.56186H135.449C134.921 1.56186 134.57 1.67353 134.399 1.90081C134.224 2.12811 134.08 2.6489 133.959 3.46263L132.349 14.4409C132.271 14.9573 132.231 15.3086 132.231 15.4943C132.231 15.8086 132.303 16.0398 132.448 16.1801C132.59 16.321 132.831 16.3911 133.166 16.3911H133.525L133.37 17.4198H129.045L129.192 16.3911ZM141.43 16.3911H141.855C142.499 16.3911 142.82 16.0437 142.82 15.3495C142.82 15.1806 142.793 14.8579 142.742 14.3831L141.43 2.45866L136.845 14.7547C136.684 15.193 136.604 15.5274 136.604 15.7631C136.604 15.9781 136.66 16.1391 136.775 16.2379C136.891 16.3412 137.113 16.3911 137.442 16.3911H137.812L137.654 17.4198H133.996L134.155 16.3911C134.6 16.3827 134.916 16.2795 135.103 16.0769C135.29 15.8743 135.564 15.3086 135.92 14.3831L141.234 0.533147H142.568L144.163 14.4409C144.261 15.3125 144.382 15.858 144.524 16.069C144.663 16.2834 144.956 16.3911 145.395 16.3911L145.253 17.4198H141.234L141.43 16.3911ZM148.353 0.533147H156.252L157.152 4.99978L156.432 5.35111C156.217 4.43803 155.97 3.7438 155.689 3.26454C155.411 2.78528 155.103 2.45023 154.768 2.26446C154.323 2.02091 153.733 1.90081 153.002 1.90081H150.984L150.081 8.08585H151.407C151.967 8.08585 152.38 7.99943 152.648 7.82151C152.913 7.64417 153.141 7.35461 153.326 6.9539C153.513 6.55713 153.655 5.97907 153.755 5.23101H154.508L153.503 12.0816H152.742C152.82 11.4621 152.86 11.0277 152.86 10.7881C152.86 10.4704 152.801 10.1893 152.686 9.93277C152.571 9.67686 152.42 9.49897 152.236 9.39569C152.05 9.28852 151.702 9.23914 151.196 9.23914H149.915L149.028 15.1683C148.993 15.4365 148.974 15.6099 148.974 15.6885C148.974 15.8495 149.015 15.9736 149.101 16.0645C149.157 16.1223 149.32 16.147 149.586 16.147H151.338C152.195 16.147 152.894 16.0067 153.436 15.7255C153.977 15.4404 154.438 15.0274 154.819 14.4864C155.196 13.9409 155.63 13.0031 156.118 11.6686L156.802 12.0816L155.135 17.4198H145.88L146.03 16.4035C146.563 16.3951 146.906 16.3541 147.059 16.2755C147.209 16.2009 147.327 16.069 147.413 15.8827C147.547 15.5936 147.654 15.1722 147.734 14.6228L149.382 3.40092C149.444 2.9918 149.476 2.70221 149.476 2.54115C149.476 2.17357 149.398 1.91763 149.24 1.77285C149.084 1.63254 148.822 1.56186 148.455 1.56186H148.213L148.353 0.533147ZM159.328 0.533147H163.599L163.481 1.56186H163.103C162.763 1.56186 162.522 1.61179 162.377 1.71507C162.232 1.81384 162.112 1.9833 162.016 2.21508C161.919 2.45023 161.825 2.8801 161.729 3.51202L160.834 9.67293L165.813 3.21908C166.078 2.8717 166.255 2.60344 166.338 2.40927C166.397 2.28074 166.423 2.14439 166.423 2.00016C166.423 1.84302 166.386 1.73582 166.306 1.6651C166.228 1.59497 166.035 1.56186 165.727 1.56186H165.397L165.569 0.533147H169.722L169.556 1.56186C169.264 1.56186 169.014 1.60336 168.805 1.68193C168.599 1.76445 168.409 1.88453 168.229 2.04562C168.114 2.15279 167.865 2.43788 167.485 2.90481L163.771 7.49547L166 14.3455C166.22 15.0319 166.413 15.5151 166.581 15.7962C166.697 15.9983 166.842 16.1515 167.018 16.2503C167.192 16.3541 167.482 16.4035 167.884 16.4035L167.745 17.4198H163.433L163.599 16.4035H163.966C164.296 16.4035 164.505 16.3619 164.588 16.2834C164.714 16.1762 164.775 15.9944 164.775 15.7385C164.775 15.5443 164.711 15.2423 164.58 14.8293L162.704 8.82551L160.568 11.4536L160.089 14.565C160.027 14.9735 159.995 15.2794 159.995 15.482C159.995 15.6515 160.033 15.8164 160.105 15.9736C160.178 16.1307 160.271 16.2424 160.387 16.3041C160.502 16.3704 160.708 16.4035 161 16.4035H161.297L161.158 17.4198H156.839L156.973 16.4035H157.262C157.635 16.4035 157.905 16.3457 158.072 16.234C158.24 16.1223 158.371 15.9281 158.468 15.6599C158.564 15.3871 158.653 14.9864 158.73 14.4533L160.349 3.51202C160.421 3.00413 160.459 2.66518 160.459 2.49569C160.459 2.28525 160.426 2.10733 160.365 1.96309C160.301 1.81831 160.212 1.71507 160.1 1.65275C159.988 1.59104 159.784 1.56186 159.484 1.56186H159.178L159.328 0.533147ZM178.976 0L179.384 5.01213L178.631 5.24336C178.526 4.30557 178.365 3.58273 178.152 3.07037C177.937 2.55798 177.68 2.18589 177.377 1.96309C177.077 1.73582 176.616 1.62415 175.991 1.62415C175.82 1.62415 175.702 1.66118 175.644 1.73975C175.582 1.81384 175.531 2.00016 175.491 2.28917L173.669 14.6968C173.629 15.0111 173.607 15.267 173.607 15.4696C173.607 15.6801 173.644 15.8664 173.72 16.0235C173.794 16.1801 173.902 16.2834 174.033 16.3288C174.167 16.3788 174.451 16.4035 174.885 16.4035L174.746 17.4198H170.419L170.576 16.4035C170.949 16.3951 171.222 16.3704 171.399 16.3288C171.579 16.2918 171.716 16.2132 171.812 16.106C171.908 15.9983 171.989 15.8417 172.053 15.6391C172.157 15.3002 172.222 15.0397 172.249 14.854L174.054 2.48334C174.09 2.23135 174.108 2.04562 174.108 1.92552C174.108 1.82224 174.081 1.74367 174.025 1.69429C173.972 1.64882 173.851 1.62415 173.661 1.62415C173.138 1.62415 172.69 1.7521 172.323 2.00408C171.954 2.26054 171.574 2.70221 171.18 3.34311C170.93 3.74379 170.601 4.4296 170.191 5.4005L169.548 4.83029L171.236 0H171.777V0.533147H178.253L178.395 0H178.976ZM185.359 0.533147H189.684L189.52 1.56186H189.183C188.805 1.56186 188.545 1.60729 188.406 1.70271C188.264 1.79363 188.149 1.95019 188.06 2.16962C187.945 2.45023 187.846 2.8801 187.763 3.46263L187.093 8.09875H192.982L193.687 3.31785C193.762 2.82624 193.797 2.5288 193.797 2.4216C193.797 2.24371 193.756 2.07422 193.674 1.91316C193.588 1.7521 193.483 1.64882 193.357 1.59944C193.28 1.57418 192.99 1.56186 192.486 1.56186L192.661 0.533147H196.978L196.819 1.56186H196.444C196.109 1.56186 195.863 1.61572 195.71 1.72739C195.555 1.83459 195.434 1.99173 195.346 2.19825C195.255 2.40477 195.163 2.82624 195.07 3.46263L193.397 14.6968C193.35 15.019 193.328 15.2715 193.328 15.4573C193.328 15.7878 193.411 16.0437 193.577 16.2216C193.687 16.3412 193.925 16.4035 194.293 16.4035H194.63L194.48 17.4198H190.147L190.297 16.4035H190.587C190.895 16.4035 191.112 16.3788 191.238 16.3249C191.364 16.271 191.477 16.1885 191.573 16.069C191.669 15.9528 191.75 15.7962 191.817 15.606C191.881 15.4118 191.943 15.106 192.002 14.6968L192.787 9.40805H186.889L186.128 14.515C186.067 14.9325 186.035 15.2586 186.035 15.482C186.035 15.6761 186.075 15.8541 186.155 16.0106C186.238 16.1678 186.348 16.2755 186.49 16.3288C186.589 16.3788 186.87 16.4035 187.329 16.4035L187.181 17.4198H182.849L183.012 16.4035H183.264C183.583 16.4035 183.808 16.3743 183.942 16.3165C184.076 16.2632 184.191 16.1722 184.288 16.0521C184.384 15.9326 184.456 15.7918 184.504 15.6391C184.593 15.3579 184.671 14.9819 184.741 14.515L186.38 3.46263C186.447 2.99573 186.482 2.66518 186.482 2.47098C186.482 2.28524 186.45 2.11183 186.383 1.95469C186.318 1.79756 186.238 1.69429 186.141 1.64043C186.043 1.58708 185.844 1.56186 185.539 1.56186H185.188L185.359 0.533147ZM202.331 0.533147H203.665L205.284 14.6475C205.351 15.23 205.423 15.6223 205.504 15.8333C205.581 16.0437 205.68 16.1885 205.798 16.271C205.916 16.3496 206.147 16.3951 206.492 16.4035L206.35 17.4198H202.331L202.513 16.4035H202.953C203.307 16.4035 203.555 16.3086 203.697 16.1268C203.84 15.9405 203.909 15.6846 203.909 15.3624C203.909 15.1845 203.891 14.9118 203.855 14.5397L203.478 11.1354H199.284L197.872 14.9488C197.757 15.267 197.701 15.5359 197.701 15.7631C197.701 15.9613 197.755 16.1223 197.862 16.234C197.969 16.3457 198.194 16.4035 198.54 16.4035H198.909L198.751 17.4198H195.094L195.252 16.4035C195.6 16.3866 195.849 16.3372 195.997 16.2503C196.144 16.1678 196.276 16.0314 196.394 15.8456C196.511 15.6599 196.701 15.2261 196.961 14.5397L202.331 0.533147ZM203.352 9.96195L202.543 2.45866L199.74 9.96195H203.352ZM209.483 0.533147H215.002C216.09 0.533147 216.875 0.669532 217.36 0.946191C217.845 1.21896 218.22 1.6449 218.491 2.21508C218.759 2.78921 218.895 3.44188 218.895 4.17762C218.895 4.95825 218.756 5.67716 218.483 6.3259C218.207 6.97468 217.826 7.50332 217.341 7.90459C216.979 8.20595 216.486 8.45401 215.865 8.65603C216.355 8.80924 216.728 8.99108 216.979 9.20153C217.33 9.49112 217.607 9.88731 217.81 10.3919C218.016 10.8958 218.118 11.4744 218.118 12.1187C218.118 12.6602 218.049 13.2012 217.909 13.7383C217.77 14.2799 217.563 14.7878 217.285 15.2586C217.009 15.73 216.677 16.1268 216.291 16.4529C215.907 16.775 215.471 17.0023 214.986 17.1432C214.306 17.3289 213.617 17.4198 212.92 17.4198H207.001L207.151 16.4035C207.628 16.3951 207.926 16.3704 208.046 16.3288C208.239 16.2671 208.392 16.1307 208.502 15.9326C208.657 15.6391 208.778 15.2008 208.864 14.6104L210.503 3.40092C210.565 2.9671 210.597 2.65283 210.597 2.45866C210.597 2.28074 210.562 2.11575 210.49 1.96309C210.42 1.80988 210.332 1.70271 210.227 1.64883C210.123 1.59104 209.922 1.56186 209.625 1.56186H209.316L209.483 0.533147ZM212.119 1.88845L211.208 8.04882H213.587C214.581 8.04882 215.324 7.90459 215.814 7.615C216.302 7.32598 216.682 6.87533 216.953 6.27204C217.22 5.6648 217.355 5.00371 217.355 4.28482C217.355 3.77693 217.269 3.33468 217.097 2.9587C216.923 2.58662 216.693 2.31385 216.406 2.14439C216.119 1.97545 215.624 1.88845 214.922 1.88845H212.119ZM211.029 9.21388L210.173 15.0936C210.136 15.3372 210.117 15.519 210.117 15.6391C210.117 15.8164 210.179 15.9528 210.3 16.0398C210.361 16.0976 210.53 16.1268 210.801 16.1268H212.347C212.416 16.1268 212.784 16.0976 213.454 16.0398C213.962 15.9904 214.292 15.945 214.445 15.895C214.742 15.7962 215.026 15.6307 215.294 15.3995C215.565 15.1638 215.795 14.8748 215.991 14.5319C216.184 14.189 216.334 13.8045 216.441 13.3831C216.548 12.9577 216.601 12.5278 216.601 12.094C216.601 11.5361 216.497 11.0322 216.286 10.5737C216.071 10.1191 215.777 9.77621 215.393 9.55283C215.01 9.32555 214.412 9.21388 213.596 9.21388H211.029ZM229.38 3.31785C229.455 2.8717 229.49 2.57426 229.49 2.4216C229.49 2.11576 229.418 1.89688 229.27 1.7605C229.125 1.62807 228.86 1.56186 228.48 1.56186H228.18L228.354 0.533147H232.671L232.512 1.56186H232.137C231.692 1.56186 231.381 1.67801 231.207 1.91316C231.031 2.14886 230.883 2.66518 230.763 3.46263L229.091 14.6968C229.042 15.0358 229.021 15.2839 229.021 15.4449C229.021 15.7918 229.091 16.0398 229.233 16.1801C229.372 16.321 229.624 16.3911 229.986 16.3911H230.323L230.165 17.4198H225.841L225.99 16.3911H226.28C226.818 16.3911 227.167 16.2671 227.319 16.0235C227.475 15.7755 227.598 15.3333 227.695 14.6968L229.091 5.36343L221.821 14.515C221.76 14.9735 221.728 15.2917 221.728 15.4696C221.728 15.8002 221.805 16.0398 221.963 16.1801C222.119 16.321 222.395 16.3911 222.786 16.3911H223.022L222.875 17.4198H218.542L218.705 16.3911H218.957C219.458 16.3911 219.801 16.2755 219.981 16.0438C220.16 15.8164 220.313 15.3041 220.433 14.515L222.082 3.46263C222.143 3.03727 222.175 2.71457 222.175 2.50805C222.175 2.15279 222.111 1.90473 221.98 1.76838C221.848 1.63255 221.599 1.56186 221.232 1.56186H220.881L221.052 0.533147H225.377L225.213 1.56186H224.876C224.41 1.56186 224.088 1.6651 223.909 1.87613C223.732 2.08657 223.579 2.6158 223.456 3.46263L222.082 12.5278L229.38 3.31785ZM233.857 0.533147H241.681L242.601 4.9751L241.888 5.33876C241.553 3.97502 241.146 3.06194 240.666 2.60344C240.186 2.14439 239.463 1.91316 238.495 1.91316H236.486L234.611 14.6104C234.557 14.9572 234.53 15.2261 234.53 15.4118C234.53 16.0645 234.86 16.3911 235.514 16.3911H235.835L235.693 17.4198H231.376L231.524 16.3911H231.853C232.303 16.3911 232.622 16.2755 232.805 16.0438C232.986 15.8164 233.131 15.3372 233.236 14.6104L234.884 3.35546C234.943 2.9587 234.972 2.67751 234.972 2.50805C234.972 1.87613 234.68 1.56186 234.099 1.56186H233.699L233.857 0.533147ZM247.86 0.533147H249.195L250.813 14.6475C250.88 15.23 250.952 15.6223 251.033 15.8333C251.111 16.0437 251.21 16.1885 251.328 16.271C251.445 16.3496 251.676 16.3951 252.021 16.4035L251.88 17.4198H247.86L248.043 16.4035H248.482C248.836 16.4035 249.085 16.3086 249.227 16.1268C249.369 15.9405 249.438 15.6846 249.438 15.3624C249.438 15.1845 249.42 14.9118 249.385 14.5397L249.007 11.1354H244.814L243.402 14.9488C243.286 15.267 243.23 15.5359 243.23 15.7631C243.23 15.9613 243.284 16.1223 243.391 16.234C243.498 16.3457 243.723 16.4035 244.069 16.4035H244.438L244.281 17.4198H240.623L240.781 16.4035C241.13 16.3866 241.379 16.3372 241.526 16.2503C241.673 16.1678 241.805 16.0314 241.923 15.8456C242.04 15.6599 242.231 15.2261 242.491 14.5397L247.86 0.533147ZM248.881 9.96195L248.072 2.45866L245.269 9.96195H248.881ZM263.09 0L263.498 5.01213L262.744 5.24336C262.64 4.30557 262.479 3.58273 262.265 3.07037C262.05 2.55798 261.793 2.18589 261.491 1.96309C261.19 1.73582 260.73 1.62415 260.105 1.62415C259.934 1.62415 259.816 1.66118 259.757 1.73975C259.695 1.81384 259.644 2.00016 259.604 2.28917L257.782 14.6968C257.742 15.0111 257.721 15.267 257.721 15.4696C257.721 15.6801 257.758 15.8664 257.833 16.0235C257.908 16.1801 258.015 16.2834 258.146 16.3288C258.281 16.3788 258.565 16.4035 258.999 16.4035L258.859 17.4198H254.532L254.69 16.4035C255.063 16.3951 255.336 16.3704 255.513 16.3288C255.692 16.2918 255.829 16.2132 255.925 16.106C256.022 15.9983 256.102 15.8417 256.167 15.6391C256.271 15.3002 256.335 15.0397 256.362 14.854L258.168 2.48334C258.203 2.23135 258.222 2.04562 258.222 1.92552C258.222 1.82224 258.195 1.74367 258.139 1.69429C258.085 1.64882 257.965 1.62415 257.774 1.62415C257.251 1.62415 256.804 1.7521 256.437 2.00408C256.067 2.26054 255.687 2.70221 255.293 3.34311C255.044 3.74379 254.714 4.4296 254.305 5.4005L253.661 4.83029L255.349 0H255.89V0.533147H262.367L262.509 0H263.09ZM269.88 0.244134C271.209 0.244134 272.302 0.863695 273.162 2.10733C274.068 3.42112 274.521 5.18947 274.521 7.40847C274.521 9.23463 274.216 10.9497 273.61 12.5609C273.002 14.1682 272.182 15.4404 271.145 16.3664C270.145 17.2627 269.039 17.7088 267.825 17.7088C266.903 17.7088 266.105 17.4159 265.43 16.8249C264.754 16.2379 264.218 15.4118 263.825 14.35C263.428 13.2882 263.232 12.0777 263.232 10.714C263.232 8.86705 263.535 7.12338 264.138 5.49139C264.743 3.85492 265.558 2.57426 266.584 1.64043C267.61 0.711065 268.709 0.244134 269.88 0.244134ZM269.928 1.52479C269.039 1.52479 268.219 1.90924 267.466 2.66911C266.716 3.43403 266.089 4.59066 265.588 6.14017C265.084 7.68964 264.832 9.31713 264.832 11.0277C264.832 12.1103 264.966 13.0733 265.234 13.9162C265.499 14.7591 265.864 15.395 266.322 15.8209C266.777 16.2503 267.303 16.4652 267.895 16.4652C268.741 16.4652 269.542 16.0769 270.293 15.3002C271.043 14.5274 271.673 13.3539 272.176 11.7842C272.682 10.2139 272.934 8.57354 272.934 6.86297C272.934 5.79726 272.801 4.85947 272.53 4.04912C272.259 3.23928 271.898 2.61579 271.442 2.18197C270.986 1.74367 270.483 1.52479 269.928 1.52479ZM276.836 0.533147H281.452C282.358 0.533147 283.044 0.694209 283.511 1.01243C283.974 1.33063 284.341 1.80148 284.603 2.42948C284.869 3.05351 285 3.78086 285 4.61144C285 5.66088 284.802 6.64413 284.405 7.56114C284.006 8.47477 283.465 9.1645 282.779 9.623C282.179 10.0198 281.204 10.2179 279.858 10.2179H278.251L277.6 14.6351C277.546 14.9904 277.519 15.2715 277.519 15.482C277.519 15.6761 277.554 15.8456 277.621 15.9904C277.691 16.1346 277.779 16.2424 277.889 16.3041C277.999 16.3704 278.202 16.4035 278.5 16.4035H278.8L278.658 17.4198H274.35L274.497 16.4035H274.834C275.279 16.4035 275.593 16.2878 275.772 16.0521C275.954 15.8164 276.096 15.3456 276.201 14.6351L277.841 3.45031C277.91 2.99965 277.943 2.69829 277.943 2.54115C277.943 2.30152 277.905 2.095 277.827 1.92999C277.747 1.76445 277.65 1.66118 277.536 1.61179C277.447 1.57869 277.157 1.56186 276.672 1.56186L276.836 0.533147ZM279.483 1.88845L278.43 8.95797H279.631C280.595 8.95797 281.249 8.87545 281.595 8.70599C282.117 8.46186 282.557 7.97025 282.913 7.22666C283.269 6.48699 283.446 5.6362 283.446 4.68551C283.446 3.99131 283.333 3.4172 283.106 2.96709C282.878 2.51644 282.581 2.20668 282.213 2.04562C281.973 1.94234 281.511 1.88845 280.826 1.88845H279.483Z" fill="#102A83"/>
<path fill-rule="evenodd" clip-rule="evenodd" d="M90.5307 58.8081L60.4316 58.8322L78.4738 44.5445L72.718 44.5501L54.6343 58.8289L25.2871 58.8092L68.1538 24.3198L90.5307 58.8081Z" fill="#E30016"/>
<path fill-rule="evenodd" clip-rule="evenodd" d="M75.856 70.2269L46.9951 70.2227L32.7204 46.3786L22.4182 46.4625L22.141 70.2425L0 70.2269V0.398926H22.1418L22.133 22.912L50.3376 0.399534L84.9347 0.398926L48.8137 29.5051L75.856 70.2269Z" fill="#102A83"/>
<path fill-rule="evenodd" clip-rule="evenodd" d="M68.1543 24.3195L98.2535 24.2954L80.2113 38.5831L85.967 38.5775L104.051 24.2988L133.398 24.3184L90.5313 58.8078L68.1543 24.3195Z" fill="#102A83"/>
</svg>
